<svg width="275" height="169" xmlns="http://www.w3.org/2000/svg"><defs><linearGradient x1="100%" y1="100%" x2="22.663%" y2="16.635%" id="a"><stop stop-color="#32445F" offset="0%"/><stop stop-color="#243246" offset="100%"/></linearGradient><linearGradient x1="100%" y1="81.034%" x2="20.69%" y2="27.586%" id="b"><stop stop-color="#243246" offset="0%"/><stop stop-color="#212E40" offset="100%"/></linearGradient><linearGradient x1="50%" y1="100%" x2="62.963%" y2="0%" id="c"><stop stop-color="#243246" offset="0%"/><stop stop-color="#212E40" offset="100%"/></linearGradient><linearGradient x1="62.963%" y1="77.444%" x2="62.963%" y2="0%" id="d"><stop stop-color="#243246" offset="0%"/><stop stop-color="#212E40" offset="100%"/></linearGradient></defs><g fill="none" fill-rule="evenodd"><g fill="#243246" fill-rule="nonzero"><g opacity=".826"><path d="M224.513 76.364c-4.242-3.311-8.42-6.62-12.646-9.931-1.833-1.402-2.724-3.182-2.352-5.485.064-.573-.257-.766-.89-.573-1.458.443-2.66 1.275-3.358 2.613-.954 1.91-2.466 2.613-4.375 2.55-2.855-.13-4.624 1.404-6.145 3.574-1.655 2.302-2.466 4.978-3.1 7.657-.696 2.872-1.02 5.747-1.136 8.67-.13 2.236-.063 4.406-.13 6.63V98.259h28.006v-4.473s.226-1.882-1.174-3.26a71.82 71.82 0 0 0-2.886-2.67 12.2 12.2 0 0 1-1.932-1.971l-5.164-6.642c.32.26.633.506.954.765 1.588 1.208 3.294 1.718 5.254 1.208 1.136-.259 2.285-.13 3.293.507.564.373 1.187.695 1.814 1.018 1.474.76 3.287.411 4.347-.854a376.89 376.89 0 0 1 1.957-2.322 2.21 2.21 0 0 0-.337-3.2zM222.216 108.836l-3.183-6.662a1.588 1.588 0 0 0-1.422-.919h-25.457c-.602 0-1.152.356-1.423.92l-3.182 6.658a1.725 1.725 0 0 0 .07 1.618c.29.49.802.793 1.352.793h31.822c.55 0 1.063-.3 1.356-.79.29-.489.315-1.102.067-1.618z"/></g><path d="M234.193 152.827l-9.902-18.523V124.9h.98c.434 0 .784-.35.784-.784v-1.583a.784.784 0 0 0-.784-.783H213.325a.784.784 0 0 0-.785.783v1.583c0 .433.35.784.785.784h.897v9.405l-9.115 18.441c-2.33 3.648-.708 6.604 3.624 6.604h21.962c4.33 0 5.898-2.921 3.5-6.523zm-17.158-17.135l.324-.656V124.9h3.795v10.189l.37.692 4.243 7.937h-12.699l3.967-8.026z" opacity=".826"/><path d="M63.136 87.844c-11.398 0-20.67 9.261-20.67 20.644 0 11.384 9.272 20.645 20.67 20.645 11.398 0 20.671-9.261 20.671-20.645 0-11.383-9.273-20.644-20.67-20.644zm1.067 6.013l4.191-3.018a18.543 18.543 0 0 1 9.834 7.089l-1.607 4.977-5.704 1.845-6.714-4.847v-6.046zm-6.37-3.018l4.143 3.018v6.047l-6.602 4.8-5.809-1.888-1.58-4.845a18.502 18.502 0 0 1 9.849-7.132zm-9.487 28.642a18.31 18.31 0 0 1-3.647-11.497l4.2-3.05 5.937 1.927 2.46 7.55-3.7 5.087-5.25-.017zm20.728 6.448c-1.864.635-3.861.98-5.938.98-2.14 0-4.194-.368-6.107-1.04l-1.644-5.046 3.715-5.106h7.866l3.756 5.163-1.648 5.049zm3.466-6.334l-3.628-4.987 2.499-7.671 5.904-1.916 4.26 3.097a18.309 18.309 0 0 1-3.743 11.486l-5.292-.009z"/><path d="M53.034 144.737H42.872l3.608-5.771c.313-.5.15-1.153-.363-1.458a1.105 1.105 0 0 0-1.495.354l-4.3 6.875h-2.678l-4.299-6.875a1.105 1.105 0 0 0-1.496-.354 1.046 1.046 0 0 0-.363 1.458l3.609 5.771H24.933c-1.315 0-2.385 1.043-2.385 2.324v19.188c0 1.281 1.07 2.324 2.385 2.324h28.1c1.316 0 2.386-1.043 2.386-2.324V147.06c0-1.281-1.07-2.324-2.385-2.324zm-7.435 18.723c0 .698-.58 1.264-1.296 1.264h-16.59c-.715 0-1.296-.566-1.296-1.264v-13.61c0-.698.58-1.263 1.297-1.263h16.589c.716 0 1.296.565 1.296 1.263v13.61zm4.798-.404c-1.24 0-2.25-.984-2.25-2.193s1.01-2.192 2.25-2.192 2.25.983 2.25 2.192c0 1.21-1.01 2.193-2.25 2.193zm0-8.417c-1.24 0-2.25-.983-2.25-2.192 0-1.21 1.01-2.193 2.25-2.193s2.25.984 2.25 2.193-1.01 2.192-2.25 2.192z" opacity=".71"/></g><g opacity=".449"><g opacity=".696" fill-rule="nonzero"><path d="M62.313 55.764c-2.99 0-5.424 2.452-5.424 5.465s2.433 5.464 5.424 5.464c2.992 0 5.425-2.451 5.425-5.464 0-3.013-2.433-5.465-5.425-5.465zm0 8.862c-1.859 0-3.372-1.524-3.372-3.397 0-1.873 1.513-3.397 3.372-3.397 1.86 0 3.372 1.524 3.372 3.397 0 1.873-1.512 3.397-3.372 3.397z" fill="#243246"/><path d="M42 12.537c.399-2.957-.06-5.473-1.327-7.33.208-.462.324-.973.324-1.512C40.997 1.67 39.36.02 37.349.02c-1.36 0-2.547.753-3.175 1.867-3.437-.173-7.645 1.1-12.001 3.634-7.437-4.33-14.171-4.85-17.664-1.33-1.518 1.53-2.304 3.718-2.3 6.362A3.681 3.681 0 0 0 0 13.929c0 2.027 1.637 3.675 3.648 3.675l.063-.001a32.883 32.883 0 0 0 2.118 4.383C1.531 29.478 1.015 36.26 4.51 39.78c1.541 1.553 3.713 2.32 6.298 2.32 3.274 0 7.21-1.23 11.366-3.65 4.155 2.42 8.091 3.65 11.365 3.65 2.585 0 4.758-.767 6.3-2.32 3.493-3.52 2.976-10.303-1.323-17.795 1.89-3.298 3.094-6.553 3.485-9.448zm-4.651-10.45c.88 0 1.595.722 1.595 1.608 0 .887-.716 1.608-1.595 1.608-.88 0-1.596-.721-1.596-1.608 0-.886.716-1.607 1.596-1.607zm-3.64 1.852c.125 1.913 1.71 3.432 3.64 3.432.698 0 1.352-.2 1.907-.544.76 1.39 1.005 3.242.71 5.432-.318 2.35-1.242 4.99-2.688 7.713-1.65-2.52-3.631-4.952-5.91-7.249-2.28-2.296-4.695-4.293-7.198-5.956 3.504-1.893 6.813-2.874 9.539-2.828zM3.649 15.537c-.88 0-1.596-.722-1.596-1.608 0-.886.716-1.608 1.595-1.608.88 0 1.596.722 1.596 1.608 0 .886-.716 1.608-1.596 1.608zm2.028 1.445a3.682 3.682 0 0 0 1.62-3.053 3.673 3.673 0 0 0-3.035-3.623c.041-1.97.62-3.566 1.698-4.653 2.625-2.644 8.1-2.18 14.213 1.115-2.502 1.663-4.916 3.66-7.195 5.955-2.28 2.296-4.261 4.729-5.912 7.25-.536-1.01-1-2.009-1.389-2.99zm.283 21.336C3.335 35.674 3.797 30.158 7.067 24c1.65 2.52 3.632 4.952 5.91 7.248 2.28 2.296 4.694 4.293 7.196 5.955-6.113 3.294-11.588 3.76-14.213 1.115zm8.47-8.532c-2.446-2.463-4.532-5.085-6.208-7.8 1.676-2.716 3.762-5.338 6.207-7.8 2.446-2.464 5.048-4.566 7.744-6.254 2.695 1.689 5.298 3.79 7.743 6.253 2.446 2.464 4.532 5.086 6.207 7.8-1.675 2.715-3.76 5.337-6.207 7.801-2.445 2.463-5.048 4.565-7.743 6.253-2.696-1.688-5.298-3.79-7.744-6.253zm23.956 8.532c-2.625 2.644-8.101 2.18-14.214-1.115 2.502-1.662 4.916-3.659 7.195-5.955 2.28-2.296 4.262-4.729 5.91-7.248 3.272 6.158 3.734 11.674 1.109 14.318z" fill="url(#a)" transform="translate(40.14 39.243)"/></g></g><path d="M271.503 99.804c-2.287-2.3-5.047-3.45-8.28-3.45H242.73c-3.233 0-5.993 1.15-8.28 3.45-2.288 2.301-3.431 5.077-3.431 8.329 0 3.252 1.144 6.028 3.43 8.329 2.288 2.3 5.048 3.451 8.28 3.451 2.928 0 5.505-.982 7.731-2.945h5.032c2.227 1.963 4.803 2.945 7.731 2.945 3.232 0 5.993-1.15 8.28-3.451 2.287-2.301 3.431-5.077 3.431-8.329 0-3.252-1.144-6.028-3.431-8.329zm-21.454 9.802a.717.717 0 0 1-.206.529.71.71 0 0 1-.526.207h-4.392v4.417a.717.717 0 0 1-.206.53.71.71 0 0 1-.526.206h-2.927a.71.71 0 0 1-.526-.207.718.718 0 0 1-.206-.529v-4.417h-4.392a.71.71 0 0 1-.526-.207.718.718 0 0 1-.205-.53v-2.944a.72.72 0 0 1 .205-.53.71.71 0 0 1 .526-.206h4.392v-4.418a.72.72 0 0 1 .205-.53.71.71 0 0 1 .527-.206h2.927a.71.71 0 0 1 .526.207.719.719 0 0 1 .206.529v4.418h4.392a.71.71 0 0 1 .526.206.719.719 0 0 1 .205.53v2.945zm12.317 3.554a2.813 2.813 0 0 1-2.07.863 2.812 2.812 0 0 1-2.07-.863 2.844 2.844 0 0 1-.858-2.082c0-.813.286-1.507.858-2.082a2.814 2.814 0 0 1 2.07-.863c.808 0 1.498.288 2.07.863.571.575.857 1.27.857 2.082 0 .813-.286 1.507-.857 2.082zm5.854-5.89a2.812 2.812 0 0 1-2.07.863 2.811 2.811 0 0 1-2.07-.863 2.846 2.846 0 0 1-.857-2.082c0-.813.286-1.507.858-2.082a2.811 2.811 0 0 1 2.07-.863 2.81 2.81 0 0 1 2.07.863c.571.575.858 1.27.858 2.082 0 .813-.286 1.507-.859 2.082z" fill="#212E40" fill-opacity=".783" fill-rule="nonzero"/><g transform="translate(0 55.59)" fill="url(#b)" fill-rule="nonzero" opacity=".739"><path d="M29.429 50.151l-3.44-3.435c-1.416-1.413-.551-2.904.99-2.995 2.54-.157 3.967-2.861 1.893-5.113-2.255-2.065-4.952-.646-5.109 1.883-.097 1.54-1.602 2.41-3.011 1.003l-3.368-3.363a2.59 2.59 0 0 0-3.658 0l-3.41 3.405c-1.415 1.413-2.914.537-3.011-1.002-.157-2.536-2.878-3.98-5.134-1.908-2.08 2.258-.635 4.975 1.905 5.132 1.542.096 2.419 1.6 1.01 3.012l-3.398 3.387a2.58 2.58 0 0 0 0 3.653l3.367 3.363c1.415 1.407.575 2.874-.967 2.97C1.548 60.3.128 63 2.202 65.252c2.255 2.071 4.946.658 5.103-1.877.097-1.54 1.572-2.385 2.987-.978l3.398 3.393a2.658 2.658 0 0 0 3.736.006l2.383-2.38 1.022-1.02c1.336-1.394.471-2.861-1.052-2.958-2.54-.157-3.979-2.874-1.905-5.126 2.255-2.07 4.976-.628 5.133 1.908.097 1.522 1.56 2.379 2.957 1.045l.925-.924 2.491-2.488.012-.012.037-.036a2.58 2.58 0 0 0 0-3.653zM233.568 11.14l3-2.995c1.234-1.232.48-2.532-.864-2.61-2.215-.138-3.459-2.496-1.65-4.46 1.966-1.8 4.317-.563 4.454 1.643.085 1.342 1.398 2.1 2.626.874l2.937-2.933c.88-.879 2.309-.879 3.19 0l2.973 2.97c1.233 1.231 2.54.468 2.625-.874.137-2.211 2.51-3.47 4.476-1.664 1.814 1.969.554 4.338-1.66 4.475-1.345.084-2.11 1.395-.881 2.627l2.963 2.953c.88.88.88 2.306 0 3.185l-2.937 2.932c-1.233 1.227-.5 2.506.844 2.59 2.214.137 3.453 2.49 1.645 4.454-1.967 1.805-4.313.574-4.45-1.637-.084-1.343-1.37-2.08-2.604-.853l-2.963 2.958a2.317 2.317 0 0 1-3.258.006l-2.078-2.075-.89-.89c-1.166-1.215-.412-2.495.917-2.579 2.214-.137 3.469-2.506 1.66-4.47-1.966-1.805-4.338-.547-4.476 1.664-.084 1.327-1.36 2.074-2.578.911l-.806-.805-2.172-2.17-.01-.01-.033-.031a2.25 2.25 0 0 1 0-3.185z"/></g><g transform="translate(162.755 26.162)" fill="url(#c)" fill-rule="nonzero" opacity=".739"><path d="M22.098 0v3.218h-3.157V0H6.314v3.218H3.157V0H0v28.965h3.157v-3.218h3.157v3.218H18.94v-3.218h3.157v3.218h3.157V0h-3.157zM6.314 22.529H3.157V19.31h3.157v3.219zm0-6.437H3.157v-3.219h3.157v3.219zm0-6.437H3.157V6.437h3.157v3.218zM22.098 22.53h-3.157V19.31h3.157v3.219zm0-6.437h-3.157v-3.219h3.157v3.219zm0-6.437h-3.157V6.437h3.157v3.218z"/></g><path d="M143.755 1.02a.873.873 0 0 0-.68-.208l-26.723 3.454a.86.86 0 0 0-.75.853v30.666c-1.575-1.89-4.075-3.12-6.897-3.12-4.753 0-8.62 3.476-8.62 7.75s3.867 7.75 8.62 7.75c4.753 0 8.62-3.476 8.62-7.75 0-.2-.016-.396-.033-.592.01-.056.033-.106.033-.165V14.684l24.999-3.231v15.72c-1.574-1.889-4.075-3.119-6.896-3.119-4.754 0-8.62 3.477-8.62 7.75 0 4.274 3.866 7.75 8.62 7.75 4.71 0 8.545-3.415 8.614-7.635 0-.011.006-.02.006-.032V1.667a.859.859 0 0 0-.293-.647z" fill="url(#d)" fill-rule="nonzero" opacity=".739"/></g></svg>