<svg xmlns="http://www.w3.org/2000/svg" xmlns:xlink="http://www.w3.org/1999/xlink" width="85" height="76"><defs><path id="a" d="M37.855.016h-4.732v11.871c0 6.556-5.297 11.872-11.83 11.872H0v4.748c0 5.245 4.237 9.497 9.464 9.497h14.195l10.316 8.619a2.36 2.36 0 0 0 3.331-.304c.355-.428.549-.967.549-1.525v-6.79c5.226 0 9.464-4.252 9.464-9.497V9.513c0-5.245-4.238-9.497-9.464-9.497z"/></defs><g fill="none" fill-rule="evenodd"><g opacity=".54"><use fill="#435B79" fill-rule="nonzero" opacity=".536" transform="translate(37 28)" xlink:href="#a"/></g><g fill-rule="nonzero"><path fill="#304158" d="M55.306 0H10.034C4.807 0 .57 4.252.57 9.497v28.491c0 5.245 4.237 9.497 9.464 9.497h7.417v9.093c0 1.311 1.06 2.375 2.366 2.375.563 0 1.11-.202 1.538-.57l12.657-10.898h21.294c5.226 0 9.464-4.252 9.464-9.497V9.497C64.77 4.252 60.532 0 55.306 0z" opacity=".667"/><path fill="#466082" d="M52.978 23.855c-.417-.734-1.39-1.009-2.177-.55l-5.282 3.027-1.343.78v7.246l1.25.733c.047 0 .047.046.093.046l5.19 2.981c.23.184.555.275.88.275.88 0 1.575-.688 1.575-1.559V30.69l.046-6.054c0-.275-.046-.55-.232-.78zM22.122 21.516c4.124 0 7.46-3.302 7.46-7.383 0-4.082-3.336-7.384-7.46-7.384-4.123 0-7.459 3.302-7.459 7.384-.046 4.081 3.336 7.383 7.46 7.383zm0-10.41a3.04 3.04 0 0 1 3.058 3.027c0 1.696-1.39 3.026-3.058 3.026-1.667 0-3.057-1.375-3.057-3.026-.047-1.697 1.343-3.027 3.057-3.027zM41.025 21.929c-1.204.596-2.548.963-3.984.963a8.727 8.727 0 0 1-4.819-1.422h-5.281a8.727 8.727 0 0 1-4.819 1.422c-1.436 0-2.78-.32-3.984-.963-1.066.596-1.807 1.789-1.807 3.073v11.19c0 2.064 1.714 3.715 3.753 3.715h19.042c2.084 0 3.752-1.697 3.752-3.715v-11.19c-.046-1.284-.787-2.477-1.853-3.073zM37.04 21.516c4.124 0 7.46-3.302 7.46-7.383 0-4.082-3.336-7.384-7.46-7.384-4.123 0-7.458 3.302-7.458 7.384 0 4.081 3.335 7.383 7.459 7.383zm0-10.41a3.04 3.04 0 0 1 3.059 3.027c0 1.696-1.39 3.026-3.058 3.026s-3.058-1.375-3.058-3.026c0-1.697 1.344-3.027 3.058-3.027z"/></g></g></svg>